<svg version="1.1" id="Layer_1" xmlns="http://www.w3.org/2000/svg" xmlns:xlink="http://www.w3.org/1999/xlink" x="0px" y="0px"
	 width="100%" viewBox="0 0 868 868" enable-background="new 0 0 868 868" xml:space="preserve">
<path fill="#FBB521" opacity="1.000000" stroke="none" 
	d="
M869.000000,425.000000 
	C869.000000,438.354218 869.000000,451.708466 868.632202,465.558655 
	C867.717346,467.162842 866.788391,468.242249 866.702087,469.385223 
	C866.518677,471.815308 866.994446,474.295715 866.805176,476.724670 
	C866.323792,482.902588 865.625122,489.063599 865.032959,495.660461 
	C864.815796,498.192596 864.813293,500.354797 864.299194,502.387634 
	C862.657898,508.877777 859.806152,515.242249 859.307312,521.798706 
	C858.553772,531.704834 856.813171,541.110840 853.182739,550.389465 
	C850.151489,558.136658 848.349609,566.359802 845.888855,574.336914 
	C844.036316,580.342224 842.231079,586.380005 839.966431,592.233765 
	C838.536804,595.929016 836.098999,599.221313 834.461914,602.851501 
	C829.256226,614.395691 825.131470,626.551086 818.772400,637.406067 
	C814.805908,644.176819 813.240479,652.422180 806.560730,657.868469 
	C803.884399,660.050476 803.462341,664.796448 801.436768,668.011536 
	C791.521362,683.750061 780.956726,699.009033 768.051819,712.533081 
	C762.444092,718.409851 757.179260,724.615662 751.821289,730.726868 
	C750.996521,731.667725 750.509399,732.904602 749.528076,734.033081 
	C744.121033,738.993042 739.052063,743.924500 733.672607,748.995483 
	C730.489136,752.293518 727.887817,755.765808 724.682678,758.540710 
	C719.186462,763.299194 713.275513,767.575500 707.614136,772.147705 
	C704.971619,774.281860 702.505371,776.634277 699.612366,778.942200 
	C697.164429,780.625305 695.063293,782.253906 692.660522,784.009888 
	C691.222595,785.046631 690.086304,785.955872 688.602966,786.921753 
	C686.156921,788.611572 684.057922,790.244812 681.601562,791.935547 
	C671.530029,798.128540 662.059692,804.701233 652.040283,810.289490 
	C639.348999,817.367859 626.367737,823.978638 613.216675,830.164185 
	C602.633789,835.141663 591.720337,839.476501 580.753479,843.559082 
	C571.224548,847.106201 561.573792,850.584106 551.694519,852.874817 
	C534.812317,856.789368 517.747925,859.967102 500.683899,863.029968 
	C490.891785,864.787415 480.944031,866.852051 471.076141,866.802917 
	C434.802460,866.622437 398.359436,869.509216 362.391663,862.028503 
	C350.488525,859.552795 338.354431,858.283264 326.776184,854.150940 
	C318.866211,851.328003 310.663300,849.316345 302.566986,847.028198 
	C297.121979,845.489258 291.472198,844.529419 286.207520,842.535583 
	C279.838165,840.123352 273.773590,836.903870 267.586182,834.014282 
	C259.771271,830.364624 251.913803,826.800781 244.171432,823.002808 
	C237.461609,819.711304 230.797455,816.304504 224.274841,812.659302 
	C216.042404,808.058533 207.741440,803.514404 199.896484,798.303833 
	C191.016861,792.406067 182.579849,785.837158 174.007126,779.483521 
	C167.633331,774.759766 161.115799,770.188416 155.090988,765.046814 
	C148.834015,759.707275 143.092667,753.763489 136.970001,747.780823 
	C131.920685,742.986694 127.027191,738.495728 122.065521,733.655762 
	C117.898712,728.604980 113.748596,723.946777 109.714821,719.190002 
	C104.948524,713.569397 100.211334,707.921021 95.591660,702.179993 
	C90.012726,695.246826 84.138626,688.494751 79.178619,681.134399 
	C73.027481,672.006470 67.674469,662.340149 61.991680,652.897400 
	C57.946461,646.175598 53.594379,639.610840 49.990761,632.658997 
	C46.607708,626.132629 44.073280,619.169800 41.081039,612.436462 
	C38.043228,605.600708 34.902203,598.810791 31.865719,591.616821 
	C30.995539,589.460510 30.066021,587.688293 29.084305,585.504272 
	C28.234169,581.801208 27.674662,578.428772 26.587944,575.235840 
	C24.419558,568.864807 21.646330,562.686829 19.717293,556.250977 
	C17.980316,550.455872 17.650419,544.199768 15.595043,538.548889 
	C12.815306,530.906494 11.314394,523.171631 10.992474,514.678101 
	C10.900853,512.404175 10.861296,510.572388 10.676267,508.755371 
	C8.781985,490.153595 6.864093,471.554230 4.968296,452.517120 
	C4.639090,443.369110 4.294384,434.658173 3.975157,425.482513 
	C4.869760,410.619354 2.167887,396.095001 6.784061,381.781891 
	C8.995552,374.924805 8.724882,367.303925 10.061457,360.118805 
	C11.777075,350.896088 13.791512,341.717896 16.025652,332.605927 
	C18.102341,324.136139 20.548149,315.752655 22.998549,307.380066 
	C24.803741,301.212006 26.878084,295.122742 28.997673,288.658936 
	C29.710693,286.212769 30.258539,284.106018 30.896540,281.656860 
	C32.968155,277.173340 35.095951,273.094666 36.897480,268.876648 
	C39.748688,262.200989 41.973911,255.228470 45.208088,248.753204 
	C49.397076,240.366272 54.380920,232.379562 58.900112,224.153275 
	C62.081005,218.363083 64.749390,212.271408 68.199158,206.653641 
	C73.203026,198.505112 78.577217,190.573273 84.050354,182.728226 
	C86.726028,178.892990 90.052826,175.518539 92.958984,171.836151 
	C97.967941,165.489304 102.643471,158.862930 107.904884,152.736893 
	C112.099846,147.852539 116.952187,143.531845 121.524391,138.972641 
	C136.276428,124.262581 151.058517,109.630180 167.562805,96.781090 
	C187.066422,81.596954 207.490829,67.923973 229.281006,56.272156 
	C236.551834,52.384243 243.556839,47.915882 251.068985,44.581665 
	C263.113525,39.235775 275.380920,34.348709 287.737152,29.760578 
	C300.016876,25.200846 312.375732,20.726021 324.974823,17.194750 
	C335.258301,14.312498 345.899597,12.584098 356.467285,10.867603 
	C372.072754,8.332831 387.734985,4.562716 403.406891,4.389868 
	C427.347931,4.125818 451.358246,2.132306 475.368195,5.695125 
	C486.357452,7.325813 497.598389,7.527603 508.554565,9.959962 
	C516.849121,11.801427 525.226501,13.266344 533.540833,15.022860 
	C541.096497,16.619087 548.750244,17.944164 556.118225,20.185802 
	C564.900757,22.857794 573.455017,26.299236 582.052124,29.555452 
	C589.932678,32.540287 597.762939,35.662514 605.567017,38.842758 
	C609.404358,40.406513 613.114319,42.279957 616.913757,43.940319 
	C624.104919,47.082870 631.443726,49.919586 638.476196,53.381130 
	C642.586609,55.404312 646.121277,58.563084 650.094971,60.905575 
	C657.181152,65.082878 664.523926,68.832726 671.533142,73.130325 
	C677.685913,76.902779 683.594055,81.088425 689.486938,85.265533 
	C693.976624,88.447998 698.492249,91.656113 702.598328,95.301163 
	C707.366394,99.533768 712.839050,102.781708 716.969543,108.024765 
	C720.722229,112.788254 726.717590,115.712860 731.288696,119.921310 
	C737.536377,125.673317 743.328369,131.917496 749.403259,137.861282 
	C752.123596,140.523041 755.316589,142.736710 757.829773,145.566925 
	C761.288818,149.462326 764.239319,153.804306 767.531677,157.854095 
	C771.288879,162.475418 775.344055,166.861481 778.973572,171.577774 
	C783.056580,176.883423 786.894714,182.384735 790.680420,187.909836 
	C794.241089,193.106598 797.637756,198.417801 801.024048,203.731232 
	C803.190430,207.130432 805.232971,210.609741 807.284607,214.080566 
	C810.218689,219.044357 813.340698,223.914597 815.976257,229.033890 
	C823.492065,243.632416 830.802429,258.336670 838.123535,273.394135 
	C838.989197,275.886658 839.924927,277.984344 840.910645,280.466125 
	C842.705017,286.734009 844.469482,292.612000 846.186462,298.503815 
	C847.173950,301.892029 848.018188,305.323029 849.054688,308.695526 
	C849.668396,310.692139 850.552002,312.604523 851.277039,314.568512 
	C852.222961,317.130768 853.296631,319.662140 854.006165,322.290253 
	C854.594971,324.471588 854.487915,326.847778 855.131409,329.005737 
	C856.231689,332.695496 858.176819,336.189148 858.874146,339.931580 
	C860.269531,347.420593 861.031189,355.026398 862.122070,362.574219 
	C862.430115,364.705383 863.059814,366.789093 863.392151,368.917938 
	C864.641113,376.916992 865.828064,384.925751 867.012817,393.399048 
	C867.142334,403.743500 867.274597,413.620300 867.517273,423.494415 
	C867.529907,424.008118 868.484131,424.498657 869.000000,425.000000 
M717.451538,687.948730 
	C773.649231,624.555908 805.624023,550.608032 812.707764,466.259064 
	C818.613281,395.940002 805.287292,329.059052 773.717957,265.917480 
	C702.163940,122.802841 546.644104,40.011440 387.887665,60.869518 
	C298.945068,72.555161 222.677475,110.523239 161.595444,176.184113 
	C78.594055,265.407440 45.404007,371.575531 62.509670,492.132904 
	C74.785461,578.650269 113.806984,652.604248 178.250885,711.751953 
	C266.716339,792.947021 371.554688,825.817322 490.432953,809.466125 
	C580.318848,797.102722 655.726501,755.512268 717.451538,687.948730 
z"/>
<path fill="#000000" opacity="1.000000" stroke="none" 
	d="
M867.038269,392.930847 
	C865.828064,384.925751 864.641113,376.916992 863.392151,368.917938 
	C863.059814,366.789093 862.430115,364.705383 862.122070,362.574219 
	C861.031189,355.026398 860.269531,347.420593 858.874146,339.931580 
	C858.176819,336.189148 856.231689,332.695496 855.131409,329.005737 
	C854.487915,326.847778 854.594971,324.471588 854.006165,322.290253 
	C853.296631,319.662140 852.222961,317.130768 851.277039,314.568512 
	C850.552002,312.604523 849.668396,310.692139 849.054688,308.695526 
	C848.018188,305.323029 847.173950,301.892029 846.186462,298.503815 
	C844.469482,292.612000 842.705017,286.734009 841.295532,280.365662 
	C844.427795,274.853546 843.641418,273.278992 838.193604,272.999329 
	C830.802429,258.336670 823.492065,243.632416 815.976257,229.033890 
	C813.340698,223.914597 810.218689,219.044357 807.284607,214.080566 
	C805.232971,210.609741 803.190430,207.130432 801.024048,203.731232 
	C797.637756,198.417801 794.241089,193.106598 790.680420,187.909836 
	C786.894714,182.384735 783.056580,176.883423 778.973572,171.577774 
	C775.344055,166.861481 771.288879,162.475418 767.531677,157.854095 
	C764.239319,153.804306 761.288818,149.462326 757.829773,145.566925 
	C755.316589,142.736710 752.123596,140.523041 749.403259,137.861282 
	C743.328369,131.917496 737.536377,125.673317 731.288696,119.921310 
	C726.717590,115.712860 720.722229,112.788254 716.969543,108.024765 
	C712.839050,102.781708 707.366394,99.533768 702.598328,95.301163 
	C698.492249,91.656113 693.976624,88.447998 689.486938,85.265533 
	C683.594055,81.088425 677.685913,76.902779 671.533142,73.130325 
	C664.523926,68.832726 657.181152,65.082878 650.094971,60.905575 
	C646.121277,58.563084 642.586609,55.404312 638.476196,53.381130 
	C631.443726,49.919586 624.104919,47.082870 616.913757,43.940319 
	C613.114319,42.279957 609.404358,40.406513 605.567017,38.842758 
	C597.762939,35.662514 589.932678,32.540287 582.052124,29.555452 
	C573.455017,26.299236 564.900757,22.857794 556.118225,20.185802 
	C548.750244,17.944164 541.096497,16.619087 533.540833,15.022860 
	C525.226501,13.266344 516.849121,11.801427 508.554565,9.959962 
	C497.598389,7.527603 486.357452,7.325813 475.368195,5.695125 
	C451.358246,2.132306 427.347931,4.125818 403.406891,4.389868 
	C387.734985,4.562716 372.072754,8.332831 356.467285,10.867603 
	C345.899597,12.584098 335.258301,14.312498 324.974823,17.194750 
	C312.375732,20.726021 300.016876,25.200846 287.737152,29.760578 
	C275.380920,34.348709 263.113525,39.235775 251.068985,44.581665 
	C243.556839,47.915882 236.551834,52.384243 229.281006,56.272156 
	C207.490829,67.923973 187.066422,81.596954 167.562805,96.781090 
	C151.058517,109.630180 136.276428,124.262581 121.524391,138.972641 
	C116.952187,143.531845 112.099846,147.852539 107.904884,152.736893 
	C102.643471,158.862930 97.967941,165.489304 92.958984,171.836151 
	C90.052826,175.518539 86.726028,178.892990 84.050354,182.728226 
	C78.577217,190.573273 73.203026,198.505112 68.199158,206.653641 
	C64.749390,212.271408 62.081005,218.363083 58.900112,224.153275 
	C54.380920,232.379562 49.397076,240.366272 45.208088,248.753204 
	C41.973911,255.228470 39.748688,262.200989 36.897480,268.876648 
	C35.095951,273.094666 32.968155,277.173340 30.501017,281.660522 
	C26.244442,283.301758 25.825521,285.778046 28.832499,288.998352 
	C26.878084,295.122742 24.803741,301.212006 22.998549,307.380066 
	C20.548149,315.752655 18.102341,324.136139 16.025652,332.605927 
	C13.791512,341.717896 11.777075,350.896088 10.061457,360.118805 
	C8.724882,367.303925 8.995552,374.924805 6.784061,381.781891 
	C2.167887,396.095001 4.869760,410.619354 3.560228,425.514404 
	C2.413214,426.007324 1.706607,426.003662 1.000000,426.000000 
	C1.000000,284.406677 1.000000,142.813370 1.000000,1.000000 
	C140.687485,1.000000 280.375092,1.000000 420.892151,1.291547 
	C422.057129,2.039450 422.388458,2.890728 422.728821,2.894359 
	C431.058899,2.983202 439.390747,3.034353 447.719513,2.909766 
	C448.489044,2.898256 449.240265,1.665625 450.000000,1.000001 
	C589.591309,1.000000 729.182556,1.000000 869.000000,1.000000 
	C869.000000,131.354141 869.000000,261.708405 868.730713,392.821991 
	C867.987061,393.364471 867.512695,393.147675 867.038269,392.930847 
z"/>
<path fill="#000000" opacity="1.000000" stroke="none" 
	d="
M10.977010,515.127136 
	C11.314394,523.171631 12.815306,530.906494 15.595043,538.548889 
	C17.650419,544.199768 17.980316,550.455872 19.717293,556.250977 
	C21.646330,562.686829 24.419558,568.864807 26.587944,575.235840 
	C27.674662,578.428772 28.234169,581.801208 28.792561,585.763428 
	C27.620581,589.468628 27.070620,592.279358 31.806383,592.000793 
	C34.902203,598.810791 38.043228,605.600708 41.081039,612.436462 
	C44.073280,619.169800 46.607708,626.132629 49.990761,632.658997 
	C53.594379,639.610840 57.946461,646.175598 61.991680,652.897400 
	C67.674469,662.340149 73.027481,672.006470 79.178619,681.134399 
	C84.138626,688.494751 90.012726,695.246826 95.591660,702.179993 
	C100.211334,707.921021 104.948524,713.569397 109.714821,719.190002 
	C113.748596,723.946777 117.898712,728.604980 122.074646,733.992676 
	C126.330658,738.855347 130.480881,743.061401 134.722153,747.173584 
	C135.286835,747.721008 136.313263,747.792236 137.125824,748.083984 
	C143.092667,753.763489 148.834015,759.707275 155.090988,765.046814 
	C161.115799,770.188416 167.633331,774.759766 174.007126,779.483521 
	C182.579849,785.837158 191.016861,792.406067 199.896484,798.303833 
	C207.741440,803.514404 216.042404,808.058533 224.274841,812.659302 
	C230.797455,816.304504 237.461609,819.711304 244.171432,823.002808 
	C251.913803,826.800781 259.771271,830.364624 267.586182,834.014282 
	C273.773590,836.903870 279.838165,840.123352 286.207520,842.535583 
	C291.472198,844.529419 297.121979,845.489258 302.566986,847.028198 
	C310.663300,849.316345 318.866211,851.328003 326.776184,854.150940 
	C338.354431,858.283264 350.488525,859.552795 362.391663,862.028503 
	C398.359436,869.509216 434.802460,866.622437 471.076141,866.802917 
	C480.944031,866.852051 490.891785,864.787415 500.683899,863.029968 
	C517.747925,859.967102 534.812317,856.789368 551.694519,852.874817 
	C561.573792,850.584106 571.224548,847.106201 580.753479,843.559082 
	C591.720337,839.476501 602.633789,835.141663 613.216675,830.164185 
	C626.367737,823.978638 639.348999,817.367859 652.040283,810.289490 
	C662.059692,804.701233 671.530029,798.128540 681.692749,792.324707 
	C687.770935,795.765442 689.067627,794.662537 688.950012,786.865112 
	C690.086304,785.955872 691.222595,785.046631 692.751099,784.398682 
	C698.764465,787.760071 700.053711,786.668152 699.959167,778.887695 
	C702.505371,776.634277 704.971619,774.281860 707.614136,772.147705 
	C713.275513,767.575500 719.186462,763.299194 724.682678,758.540710 
	C727.887817,755.765808 730.489136,752.293518 734.024536,749.071899 
	C739.746643,744.007385 744.806335,739.005981 749.866089,734.004639 
	C750.509399,732.904602 750.996521,731.667725 751.821289,730.726868 
	C757.179260,724.615662 762.444092,718.409851 768.051819,712.533081 
	C780.956726,699.009033 791.521362,683.750061 801.436768,668.011536 
	C803.462341,664.796448 803.884399,660.050476 806.560730,657.868469 
	C813.240479,652.422180 814.805908,644.176819 818.772400,637.406067 
	C825.131470,626.551086 829.256226,614.395691 834.461914,602.851501 
	C836.098999,599.221313 838.536804,595.929016 839.966431,592.233765 
	C842.231079,586.380005 844.036316,580.342224 845.888855,574.336914 
	C848.349609,566.359802 850.151489,558.136658 853.182739,550.389465 
	C856.813171,541.110840 858.553772,531.704834 859.307312,521.798706 
	C859.806152,515.242249 862.657898,508.877777 864.299194,502.387634 
	C864.813293,500.354797 864.815796,498.192596 865.400024,495.428589 
	C866.161377,490.320557 866.480713,485.861053 867.068604,481.437225 
	C867.185913,480.554840 868.329590,479.808868 869.000000,479.000000 
	C869.000000,608.930481 869.000000,738.860901 869.000000,869.000000 
	C726.645813,869.000000 584.291565,869.000000 441.302979,868.608398 
	C437.445770,868.477844 434.222870,868.738953 431.000000,869.000000 
	C287.740173,869.000000 144.480362,869.000000 1.000000,869.000000 
	C1.000000,728.312500 1.000000,587.624939 1.353347,446.161804 
	C2.184434,447.912964 2.662174,450.439697 3.070456,453.430603 
	C3.667090,463.002319 4.179515,472.124420 5.043386,481.213135 
	C5.873114,489.942657 6.919182,498.659210 8.188872,507.334808 
	C8.580529,510.010956 10.018256,512.533997 10.977010,515.127136 
z"/>
<path fill="#FFFF00" opacity="1.000000" stroke="none" 
	d="
M3.139916,452.966400 
	C2.662174,450.439697 2.184434,447.912964 1.353347,445.693115 
	C1.000000,439.645599 1.000000,433.291199 1.000000,426.468414 
	C1.706607,426.003662 2.413214,426.007324 3.534750,425.979126 
	C4.294384,434.658173 4.639090,443.369110 4.666842,452.534302 
	C3.946566,452.981140 3.543242,452.973755 3.139916,452.966400 
z"/>
<path fill="#FFA600" opacity="1.000000" stroke="none" 
	d="
M449.531342,1.000001 
	C449.240265,1.665625 448.489044,2.898256 447.719513,2.909766 
	C439.390747,3.034353 431.058899,2.983202 422.728821,2.894359 
	C422.388458,2.890728 422.057129,2.039450 421.360779,1.291547 
	C430.354218,1.000000 439.708466,1.000000 449.531342,1.000001 
z"/>
<path fill="#FFDE0F" opacity="1.000000" stroke="none" 
	d="
M867.012817,393.399048 
	C867.512695,393.147675 867.987061,393.364471 868.730713,393.290649 
	C869.000000,403.354218 869.000000,413.708466 869.000000,424.531342 
	C868.484131,424.498657 867.529907,424.008118 867.517273,423.494415 
	C867.274597,413.620300 867.142334,403.743500 867.012817,393.399048 
z"/>
<path fill="#FFDE0C" opacity="1.000000" stroke="none" 
	d="
M869.000000,478.536804 
	C868.329590,479.808868 867.185913,480.554840 867.068604,481.437225 
	C866.480713,485.861053 866.161377,490.320557 865.380554,494.999451 
	C865.625122,489.063599 866.323792,482.902588 866.805176,476.724670 
	C866.994446,474.295715 866.518677,471.815308 866.702087,469.385223 
	C866.788391,468.242249 867.717346,467.162842 868.632202,466.027313 
	C869.000000,470.024536 869.000000,474.049103 869.000000,478.536804 
z"/>
<path fill="#FFFF00" opacity="1.000000" stroke="none" 
	d="
M431.454102,869.000000 
	C434.222870,868.738953 437.445770,868.477844 440.834320,868.608398 
	C437.969391,869.000000 434.938812,869.000000 431.454102,869.000000 
z"/>
<path fill="#010101" opacity="1.000000" stroke="none" 
	d="
M717.225281,688.223022 
	C655.726501,755.512268 580.318848,797.102722 490.432953,809.466125 
	C371.554688,825.817322 266.716339,792.947021 178.250885,711.751953 
	C113.806984,652.604248 74.785461,578.650269 62.509670,492.132904 
	C45.404007,371.575531 78.594055,265.407440 161.595444,176.184113 
	C222.677475,110.523239 298.945068,72.555161 387.887665,60.869518 
	C546.644104,40.011440 702.163940,122.802841 773.717957,265.917480 
	C805.287292,329.059052 818.613281,395.940002 812.707764,466.259064 
	C805.624023,550.608032 773.649231,624.555908 717.225281,688.223022 
M503.980042,160.570404 
	C485.536346,158.069214 467.161957,154.439148 448.634521,153.301346 
	C409.817383,150.917572 371.880554,156.539551 335.186981,169.655502 
	C284.792389,187.668808 242.225784,217.038361 208.625107,258.759857 
	C157.598495,322.118927 137.485092,394.595734 148.466583,474.996399 
	C156.274551,532.162231 181.253937,581.871216 220.283142,624.277893 
	C260.109467,667.550598 308.323547,697.561340 365.075073,713.444458 
	C376.169952,716.549561 387.514923,718.761353 399.005188,721.446045 
	C399.005188,699.733093 399.005188,678.998352 399.005188,658.358704 
	C397.142181,657.913757 395.695251,657.507080 394.224335,657.225891 
	C359.274384,650.543640 327.640167,636.354309 299.407898,614.777039 
	C264.421265,588.037659 238.959396,554.181763 224.282196,512.484619 
	C211.321289,475.663391 207.457886,437.855042 213.518631,399.319794 
	C220.360870,355.815674 239.708679,317.920837 269.477936,285.919983 
	C313.606781,238.483002 368.622009,214.020798 433.582184,213.040390 
	C470.123535,212.488907 504.875824,220.370239 537.708069,236.741623 
	C574.324402,254.999893 603.934692,281.075531 626.311279,315.262726 
	C643.068359,340.864502 653.087280,369.425995 661.669250,398.528168 
	C662.605713,401.703644 663.741577,402.712250 667.002991,402.685608 
	C685.167480,402.537079 703.333923,402.634033 721.499695,402.618134 
	C723.072632,402.616760 724.645447,402.405243 726.253479,402.288788 
	C706.783630,279.834290 623.164307,189.530685 503.980042,160.570404 
M693.398315,600.889648 
	C704.416443,583.301514 713.731934,564.930481 719.802979,544.838379 
	C659.093079,544.838379 598.991699,544.838379 538.538330,544.838379 
	C538.538330,561.542175 538.538330,577.935913 538.538330,594.147339 
	C569.664429,594.147339 600.371765,594.147339 631.015686,594.147339 
	C615.835022,624.154236 522.792480,667.512512 483.460938,662.755188 
	C483.348541,662.322754 483.121277,661.856628 483.121338,661.390442 
	C483.127106,616.726501 482.766296,572.057251 483.376984,527.401367 
	C483.595612,511.411652 490.430725,498.106384 505.740753,490.554443 
	C515.030579,485.972076 524.969299,485.700104 534.994690,485.703918 
	C584.658875,485.722870 634.323059,485.724884 683.987244,485.725128 
	C704.652832,485.725250 725.318481,485.686646 745.984070,485.716522 
	C749.168701,485.721130 751.861023,485.394470 753.152588,481.776123 
	C759.284790,464.596588 765.533386,447.458618 772.033081,429.497467 
	C769.673828,429.497467 767.897766,429.497650 766.121704,429.497437 
	C687.292603,429.488403 608.462646,429.296295 529.635315,429.667023 
	C517.765137,429.722839 505.665985,431.377899 494.094635,434.091980 
	C470.922302,439.527130 451.938263,451.670044 439.013550,472.357880 
	C428.067657,489.878418 423.682373,509.237579 423.577789,529.457825 
	C423.250275,592.786011 423.428253,656.116821 423.422119,719.446655 
	C423.421967,721.039978 423.557861,722.633362 423.632904,724.283936 
	C425.495331,724.487244 426.803741,724.671387 428.118591,724.767395 
	C455.832581,726.791077 483.417053,725.680786 510.660034,720.132446 
	C587.000732,704.584839 649.503662,667.589294 693.398315,600.889648 
z"/>
<path fill="#FFD518" opacity="1.000000" stroke="none" 
	d="
M3.070458,453.430603 
	C3.543242,452.973755 3.946566,452.981140 4.651342,452.971375 
	C6.864093,471.554230 8.781985,490.153595 10.676267,508.755371 
	C10.861296,510.572388 10.900853,512.404175 10.992472,514.678101 
	C10.018256,512.533997 8.580529,510.010956 8.188872,507.334808 
	C6.919182,498.659210 5.873114,489.942657 5.043386,481.213135 
	C4.179515,472.124420 3.667090,463.002319 3.070458,453.430603 
z"/>
<path fill="#000000" opacity="1.000000" stroke="none" 
	d="
M688.602966,786.921753 
	C689.067627,794.662537 687.770935,795.765442 682.050049,792.267212 
	C684.057922,790.244812 686.156921,788.611572 688.602966,786.921753 
z"/>
<path fill="#000000" opacity="1.000000" stroke="none" 
	d="
M699.612366,778.942200 
	C700.053711,786.668152 698.764465,787.760071 693.052734,784.271301 
	C695.063293,782.253906 697.164429,780.625305 699.612366,778.942200 
z"/>
<path fill="#000000" opacity="1.000000" stroke="none" 
	d="
M838.123535,273.394135 
	C843.641418,273.278992 844.427795,274.853546 841.245605,279.981567 
	C839.924927,277.984344 838.989197,275.886658 838.123535,273.394135 
z"/>
<path fill="#FFD902" opacity="1.000000" stroke="none" 
	d="
M749.528076,734.033081 
	C744.806335,739.005981 739.746643,744.007385 734.334961,748.932373 
	C739.052063,743.924500 744.121033,738.993042 749.528076,734.033081 
z"/>
<path fill="#FFD902" opacity="1.000000" stroke="none" 
	d="
M136.970001,747.780823 
	C136.313263,747.792236 135.286835,747.721008 134.722153,747.173584 
	C130.480881,743.061401 126.330658,738.855347 122.142822,734.341675 
	C127.027191,738.495728 131.920685,742.986694 136.970001,747.780823 
z"/>
<path fill="#000000" opacity="1.000000" stroke="none" 
	d="
M28.997673,288.658936 
	C25.825521,285.778046 26.244442,283.301758 30.410862,282.002869 
	C30.258539,284.106018 29.710693,286.212769 28.997673,288.658936 
z"/>
<path fill="#000000" opacity="1.000000" stroke="none" 
	d="
M31.865721,591.616821 
	C27.070620,592.279358 27.620581,589.468628 28.844761,586.175171 
	C30.066021,587.688293 30.995539,589.460510 31.865721,591.616821 
z"/>
<path fill="#F4F4F5" opacity="1.000000" stroke="none" 
	d="
M504.376953,160.689499 
	C623.164307,189.530685 706.783630,279.834290 726.253479,402.288788 
	C724.645447,402.405243 723.072632,402.616760 721.499695,402.618134 
	C703.333923,402.634033 685.167480,402.537079 667.002991,402.685608 
	C663.741577,402.712250 662.605713,401.703644 661.669250,398.528168 
	C653.087280,369.425995 643.068359,340.864502 626.311279,315.262726 
	C603.934692,281.075531 574.324402,254.999893 537.708069,236.741623 
	C504.875824,220.370239 470.123535,212.488907 433.582184,213.040390 
	C368.622009,214.020798 313.606781,238.483002 269.477936,285.919983 
	C239.708679,317.920837 220.360870,355.815674 213.518631,399.319794 
	C207.457886,437.855042 211.321289,475.663391 224.282196,512.484619 
	C238.959396,554.181763 264.421265,588.037659 299.407898,614.777039 
	C327.640167,636.354309 359.274384,650.543640 394.224335,657.225891 
	C395.695251,657.507080 397.142181,657.913757 399.005188,658.358704 
	C399.005188,678.998352 399.005188,699.733093 399.005188,721.446045 
	C387.514923,718.761353 376.169952,716.549561 365.075073,713.444458 
	C308.323547,697.561340 260.109467,667.550598 220.283142,624.277893 
	C181.253937,581.871216 156.274551,532.162231 148.466583,474.996399 
	C137.485092,394.595734 157.598495,322.118927 208.625107,258.759857 
	C242.225784,217.038361 284.792389,187.668808 335.186981,169.655502 
	C371.880554,156.539551 409.817383,150.917572 448.634521,153.301346 
	C467.161957,154.439148 485.536346,158.069214 504.376953,160.689499 
z"/>
<path fill="#F3F3F4" opacity="1.000000" stroke="none" 
	d="
M693.220825,601.205688 
	C649.503662,667.589294 587.000732,704.584839 510.660034,720.132446 
	C483.417053,725.680786 455.832581,726.791077 428.118591,724.767395 
	C426.803741,724.671387 425.495331,724.487244 423.632904,724.283936 
	C423.557861,722.633362 423.421967,721.039978 423.422119,719.446655 
	C423.428253,656.116821 423.250275,592.786011 423.577789,529.457825 
	C423.682373,509.237579 428.067657,489.878418 439.013550,472.357880 
	C451.938263,451.670044 470.922302,439.527130 494.094635,434.091980 
	C505.665985,431.377899 517.765137,429.722839 529.635315,429.667023 
	C608.462646,429.296295 687.292603,429.488403 766.121704,429.497437 
	C767.897766,429.497650 769.673828,429.497467 772.033081,429.497467 
	C765.533386,447.458618 759.284790,464.596588 753.152588,481.776123 
	C751.861023,485.394470 749.168701,485.721130 745.984070,485.716522 
	C725.318481,485.686646 704.652832,485.725250 683.987244,485.725128 
	C634.323059,485.724884 584.658875,485.722870 534.994690,485.703918 
	C524.969299,485.700104 515.030579,485.972076 505.740753,490.554443 
	C490.430725,498.106384 483.595612,511.411652 483.376984,527.401367 
	C482.766296,572.057251 483.127106,616.726501 483.121338,661.390442 
	C483.121277,661.856628 483.348541,662.322754 483.460938,662.755188 
	C522.792480,667.512512 615.835022,624.154236 631.015686,594.147339 
	C600.371765,594.147339 569.664429,594.147339 538.538330,594.147339 
	C538.538330,577.935913 538.538330,561.542175 538.538330,544.838379 
	C598.991699,544.838379 659.093079,544.838379 719.802979,544.838379 
	C713.731934,564.930481 704.416443,583.301514 693.220825,601.205688 
z"/>
</svg>